<?xml version="1.0" encoding="UTF-8" standalone="no"?>
<svg
   width="107.31915mm"
   height="33.126759mm"
   viewBox="0 0 107.31915 33.126759"
   version="1.1"
   id="svg842"
   inkscape:version="1.1-dev (2525a4d, 2020-09-15)"
   sodipodi:docname="AFR LOGO.svg"
   xmlns:inkscape="http://www.inkscape.org/namespaces/inkscape"
   xmlns:sodipodi="http://sodipodi.sourceforge.net/DTD/sodipodi-0.dtd"
   xmlns="http://www.w3.org/2000/svg"
   xmlns:svg="http://www.w3.org/2000/svg">
  <defs
     id="defs838" />
  <sodipodi:namedview
     id="base"
     pagecolor="#ffffff"
     bordercolor="#666666"
     borderopacity="1.0"
     inkscape:pageopacity="0.0"
     inkscape:pageshadow="2"
     inkscape:zoom="1.28"
     inkscape:cx="159.76563"
     inkscape:cy="45.703125"
     inkscape:document-units="mm"
     inkscape:current-layer="layer1"
     showgrid="false"
     inkscape:window-width="2560"
     inkscape:window-height="1017"
     inkscape:window-x="-8"
     inkscape:window-y="-8"
     inkscape:window-maximized="1"
     lock-margins="true"
     fit-margin-top="0"
     fit-margin-left="0"
     fit-margin-right="0"
     fit-margin-bottom="0" />
  <g
     inkscape:label="Camada 1"
     inkscape:groupmode="layer"
     id="layer1"
     transform="translate(-45.158535,-13.296623)">
    <path
       style="fill:#008000;stroke-width:0.248876"
       d="m 97.724898,45.997003 v -0.40029 l 0.622187,0.15616 c 1.040024,0.26103 0.51012,-0.61389 -0.581685,-0.96041 l -0.558478,-0.17725 0.07233,-1.90882 0.07233,-1.90881 h 1.368823 1.368825 l 0.0795,0.55997 0.0795,0.55997 h -0.390626 c -0.214839,0 -0.390622,-0.16799 -0.390622,-0.37331 v -0.37332 h -0.746627 -0.746636 v 1.49326 1.49326 h 0.746636 0.746627 v -0.51849 c 0,-0.66566 0.595698,-0.49267 0.698568,0.20286 0.0456,0.30816 -0.13745,0.66622 -0.453812,0.88781 l -0.530191,0.37136 0.267156,0.16511 c 0.14693,0.0908 0.267152,0.38249 0.267152,0.64817 v 0.48307 h -0.9955 -0.995509 z m 33.686932,0.0233 c -0.0851,-0.22174 -0.0283,-0.5296 0.12628,-0.68414 l 0.281,-0.28099 0.32847,0.44922 c 0.3801,0.51981 1.25087,0.44413 1.35914,-0.11812 l 0.0738,-0.38306 -1.06641,-0.23628 -1.06642,-0.23626 v -1.86657 -1.86657 l 1.43931,-0.0749 1.4393,-0.0749 -0.0705,2.81252 -0.0705,2.81253 -1.30938,0.0753 -1.30938,0.0753 -0.15471,-0.40314 z m 2.15127,-3.3562 v -1.49326 h -0.74662 -0.74663 v 1.49326 1.49326 h 0.74663 0.74662 z m -50.259541,1.88283 c -0.370138,-0.44599 -0.245764,-1.93354 0.173161,-2.07106 l 0.311101,-0.10213 v 0.89181 0.89181 h 0.871068 0.871067 v -0.81821 -0.8182 l -1.244389,-1.22567 -1.244382,-1.22567 v -0.76843 c 0,-1.22245 1.334716,-1.79296 2.841722,-1.21467 l 0.393677,0.15107 v 0.96888 0.96888 H 85.90327 85.529956 v -0.74663 -0.74663 h -0.871067 -0.871068 v 0.56933 0.56932 l 1.244381,1.22567 1.244382,1.22568 v 1.16489 1.16489 l -0.393677,0.15106 c -0.726286,0.27871 -2.280077,0.15462 -2.579348,-0.20599 z m 4.528498,0.19223 -0.311095,-0.12553 v -1.97027 -1.97027 h 1.342191 1.342197 l 0.151065,0.39367 c 0.08308,0.21652 0.151064,1.05254 0.151064,1.85781 v 1.46415 l -0.481386,0.25764 c -0.496135,0.26552 -1.645508,0.31414 -2.194036,0.0928 z m 1.679914,-2.07506 v -1.49326 H 88.889785 88.26759 v 1.49326 1.49326 h 0.622195 0.622186 z m 1.991017,-1.24438 v -3.52575 l 0.311092,0.1037 0.3111,0.1037 v 3.31835 3.31835 l -0.3111,0.1037 -0.311092,0.1037 z m 2.053227,3.30272 -0.311094,-0.10881 v -1.97027 -1.97027 h 0.373313 0.373314 v 1.74213 1.74214 h 0.746635 0.746628 v -1.74214 -1.74213 h 0.383379 0.383382 l -0.07229,2.01384 -0.07228,2.01384 -1.119947,0.0652 c -0.615967,0.0359 -1.259937,0.0163 -1.431041,-0.0436 z m 7.964045,0.0167 -0.31109,-0.12553 v -1.98269 -1.9827 l 1.43104,0.0746 1.43103,0.0746 0.0741,1.70232 0.0741,1.70232 -0.29123,0.35091 c -0.27867,0.33577 -1.75438,0.44981 -2.40796,0.18609 z m 1.9288,-2.07506 v -1.49326 h -0.74663 -0.74663 v 1.49326 1.49326 h 0.74663 0.74663 z m 2.05322,2.07506 -0.31109,-0.12553 v -1.97027 -1.97028 h 1.38313 1.38313 l -0.0765,1.05773 -0.0765,1.05773 -0.93328,0.0772 -0.93329,0.0772 v 0.60717 0.60717 h 0.59556 c 0.32756,0 0.66003,-0.16799 0.73882,-0.37332 0.22411,-0.58402 0.65663,-0.43762 0.65663,0.22225 0,0.79397 -1.30119,1.18696 -2.42655,0.73287 z m 1.67992,-3.07057 v -0.49775 h -0.62219 -0.62219 v 0.49775 0.49775 h 0.62219 0.62219 z m 2.00094,2.87404 c -0.3581,-0.43149 -0.25863,-1.17372 0.17673,-1.31868 0.18248,-0.0608 0.3111,0.11079 0.3111,0.41491 v 0.5185 h 0.74663 0.74662 v -0.32541 c 0,-0.17897 -0.51137,-0.68586 -1.1364,-1.12642 l -1.1364,-0.80101 0.0787,-0.5535 0.0787,-0.5535 h 1.36883 1.36882 l 0.0795,0.55998 0.0795,0.55997 h -0.39063 c -0.21484,0 -0.39063,-0.16799 -0.39063,-0.37332 v -0.37331 h -0.74662 c -1.04113,0 -0.93269,0.37686 0.37331,1.29742 l 1.11995,0.78941 v 0.5245 c 0,1.06365 -2.01084,1.62425 -2.72772,0.76046 z m 5.83075,0.0572 c -0.0729,-0.19008 -0.101,-1.73931 -0.0624,-3.44275 l 0.0703,-3.09715 h 0.37331 0.37331 v 3.3391 3.33909 l -0.31096,0.10365 c -0.17103,0.057 -0.37065,-0.0519 -0.44359,-0.24194 z m 2.0456,0.14347 c -0.0941,-0.0941 -0.17111,-1.03758 -0.17111,-2.09661 v -1.92551 l 1.24587,-0.0862 c 1.76128,-0.12191 1.74066,-0.14792 1.74066,2.19514 v 2.11544 l -0.3111,-0.10286 -0.3111,-0.10287 -0.0731,-1.78444 -0.0731,-1.78445 h -0.60038 -0.60039 l -0.0731,1.78445 c -0.0668,1.63108 -0.32739,2.23367 -0.77309,1.78796 z m 4.36798,-0.12838 c -0.1789,-0.1789 -0.30818,-0.95724 -0.30818,-1.85537 v -1.54718 l -0.31111,-0.12623 -0.31109,-0.12623 0.28601,-0.20561 c 0.1573,-0.11308 0.32529,-0.47681 0.37331,-0.8083 0.048,-0.33148 0.22731,-0.6488 0.39841,-0.70515 l 0.31109,-0.10245 v 0.66623 0.66623 l 0.49776,0.13016 c 0.27376,0.0716 0.49775,0.2291 0.49775,0.35002 0,0.12091 -0.22399,0.21985 -0.49775,0.21985 h -0.49776 v 1.49326 1.49326 h 0.5185 c 0.64601,0 0.50257,0.594 -0.16758,0.69394 -0.26464,0.0395 -0.61985,-0.0669 -0.78936,-0.23643 z m 2.49167,0.12429 -0.31109,-0.12553 v -1.98269 -1.9827 l 1.43104,0.0746 1.43104,0.0746 v 0.99551 0.99551 l -1.05773,0.0765 -1.05773,0.0765 v 0.60788 0.60788 h 0.74664 0.74663 v -0.37332 c 0,-0.20532 0.16799,-0.37331 0.37331,-0.37331 0.44658,0 0.49498,0.77429 0.0747,1.19461 -0.29469,0.29468 -1.77197,0.37786 -2.37677,0.13382 z m 1.9288,-3.07057 v -0.49775 h -0.74663 -0.74664 v 0.49775 0.49775 h 0.74664 0.74663 z m 1.90805,3.06948 c -0.0913,-0.0913 -0.16592,-1.65918 -0.16592,-3.48427 v -3.31835 h 0.37331 0.37332 v 3.48427 c 0,3.18465 -0.1064,3.79266 -0.58071,3.31835 z m 1.8251,-1.9288 v -2.13619 h 0.38337 0.38338 l -0.0723,2.0332 -0.0723,2.0332 -0.31109,0.10299 -0.3111,0.10299 z m 6.03525,1.92989 -0.3111,-0.12553 v -1.97027 -1.97028 h 1.38313 1.38314 l -0.0765,1.05773 -0.0765,1.05773 -0.93329,0.0772 -0.93329,0.0772 v 0.60717 0.60717 h 0.59556 c 0.32757,0 0.66003,-0.16799 0.73882,-0.37332 0.22411,-0.58402 0.65663,-0.43762 0.65663,0.22225 0,0.79397 -1.30119,1.18696 -2.42654,0.73287 z m 1.67991,-3.07057 v -0.49775 h -0.62219 -0.62219 v 0.49775 0.49775 h 0.62219 0.62219 z m 1.99101,1.16575 v -2.11113 l 1.18217,-0.10684 c 0.65019,-0.0588 1.32655,0.003 1.50303,0.13797 l 0.32088,0.24479 -0.072,1.89021 -0.072,1.89021 h -0.37332 -0.37331 l -0.0731,-1.80436 -0.0731,-1.80435 h -0.60038 -0.60038 l -0.0731,1.78445 -0.0731,1.78444 -0.31109,0.10287 -0.3111,0.10286 z m 4.542,1.90482 -0.31109,-0.12553 v -1.7214 -1.72139 h -0.37332 c -0.20533,0 -0.37331,-0.10001 -0.37331,-0.22225 0,-0.12224 0.16798,-0.28671 0.37331,-0.36551 0.20532,-0.0788 0.37332,-0.43608 0.37332,-0.79399 v -0.65074 l 0.31109,0.10215 c 0.1711,0.0562 0.34654,0.4015 0.38985,0.76737 0.0444,0.37506 0.23436,0.66521 0.43553,0.66521 0.19623,0 0.35678,0.112 0.35678,0.24888 0,0.13688 -0.16799,0.24888 -0.37331,0.24888 h -0.37332 v 1.49326 1.49326 h 0.37332 c 0.20532,0 0.37331,0.16799 0.37331,0.37331 0,0.36368 -0.55499,0.46156 -1.18216,0.20849 z m 2.19626,-0.18609 -0.29123,-0.35091 0.0741,-1.70232 0.0741,-1.70232 1.44598,-0.0751 1.44598,-0.0751 -0.0772,1.0706 -0.0772,1.07059 -1.05772,0.0765 -1.05773,0.0765 v 0.60788 0.60788 h 0.74663 0.74663 v -0.37332 c 0,-0.20532 0.16799,-0.37331 0.37332,-0.37331 h 0.37331 v 0.59556 c 0,0.90447 -2.07576,1.32189 -2.71905,0.54678 z m 1.97242,-2.88448 v -0.49775 h -0.74663 -0.74663 v 0.49775 0.49775 h 0.74663 0.74663 z m 2.05323,3.07057 c -0.37964,-0.15319 -0.41329,-1.2359 -0.0455,-1.46322 0.14626,-0.0904 0.32706,0.0708 0.40234,0.35862 l 0.13671,0.5228 h 0.59317 0.59316 v -0.36979 c 0,-0.20338 -0.44797,-0.66624 -0.99551,-1.02858 l -0.9955,-0.65879 v -0.71356 -0.71356 h 1.36882 1.36882 v 0.6222 0.62219 h -0.37331 c -0.20533,0 -0.37332,-0.16799 -0.37332,-0.37332 v -0.37331 h -0.62219 c -0.92552,0 -0.76155,0.58826 0.37332,1.33928 l 0.9955,0.65879 v 0.71647 c 0,0.91269 -1.21826,1.34133 -2.42654,0.85378 z M 46.809745,44.185843 c -2.104009,-1.28302 -1.998374,-4.13709 0.204298,-5.51965 l 0.811125,-0.50911 1.080811,0.1101 1.080804,0.11011 0.955298,0.93283 0.955298,0.93282 0.5771,-0.6498 c 0.317401,-0.3574 1.753035,-1.99211 3.190296,-3.63269 l 2.613202,-2.98289 4.174845,-0.01 4.174839,-0.01 0.217672,-0.55997 c 0.119717,-0.30799 0.552425,-0.87694 0.961576,-1.26434 l 0.743904,-0.70437 0.982769,-0.13182 0.982776,-0.13182 0.798137,0.41274 c 1.059115,0.54769 1.769555,1.76355 1.7707,3.03043 l 0.0011,1.02416 -0.519728,0.66072 c -1.625463,2.06645 -4.566994,1.76507 -5.598828,-0.57363 l -0.44817,-1.01547 H 62.74999 58.980412 l -2.678868,3.04873 c -1.473376,1.67681 -3.143341,3.70665 -3.711038,4.51076 -0.567691,0.80411 -1.43897,1.89606 -1.936176,2.42655 l -0.904006,0.96452 -1.087002,-10e-4 c -0.624019,-5.6e-4 -1.413507,-0.20003 -1.853552,-0.46837 z m 3.091209,-0.92463 c 0.31286,-0.21914 0.677121,-0.68325 0.809475,-1.03136 l 0.240639,-0.63292 -0.277082,-0.83955 c -0.519027,-1.57267 -2.235311,-2.00748 -3.491971,-0.88466 l -0.775442,0.69286 v 0.9785 0.9785 l 0.660959,0.56853 c 0.779128,0.67017 2.013653,0.74429 2.833422,0.1701 z m 21.57879,-8.1765 0.610879,-0.61088 v -0.90152 -0.90152 l -0.727486,-0.72749 c -0.818994,-0.81899 -1.44527,-0.90368 -2.530958,-0.34225 -1.364419,0.70557 -1.593494,2.26741 -0.493848,3.36706 l 0.727486,0.72748 h 0.901524 0.901525 z m 29.978296,4.69116 v -0.33636 l 1.11995,0.0487 1.11994,0.0487 v 0.31011 0.3101 l -1.11994,-0.0225 -1.11995,-0.0225 v -0.33636 z m 28.12305,-0.47157 c 0,-0.20532 0.16798,-0.37331 0.37331,-0.37331 0.20532,0 0.37331,0.16799 0.37331,0.37331 0,0.20532 -0.16799,0.37331 -0.37331,0.37331 -0.20533,0 -0.37331,-0.16799 -0.37331,-0.37331 z m -82.630756,-1.92879 c -0.453201,-0.30799 -1.036324,-0.9715 -1.295834,-1.47447 l -0.471838,-0.91451 0.267,-0.99155 0.267,-0.99156 0.876258,-0.76936 0.876258,-0.76937 h 0.999201 c 1.195506,0 2.246773,0.50027 2.881071,1.37103 l 0.464998,0.63833 3.303376,-3.74232 3.303384,-3.74232 h 4.090674 4.09068 l 0.391783,-0.75763 c 1.508775,-2.91765 6.084515,-1.9184 6.090143,1.32996 0.0061,3.52506 -4.377705,4.48654 -6.095829,1.33697 l -0.497754,-0.91245 -3.857583,0.007 -3.857591,0.007 -2.532622,2.917 c -2.915623,3.35814 -4.277283,5.0962 -4.815633,6.1468 -0.884267,1.72569 -2.969405,2.33682 -4.477142,1.31221 z m 2.705317,-0.79019 c 1.384144,-0.71576 1.643194,-2.30743 0.552987,-3.39764 l -0.727486,-0.72748 h -0.901524 -0.901524 l -0.610879,0.61088 c -1.791915,1.79191 0.334973,4.67955 2.588426,3.51424 z m 21.848469,-8.38955 0.586503,-0.55099 v -0.96344 -0.96343 l -0.610879,-0.61088 -0.610878,-0.61088 H 69.86205 68.855226 l -0.491417,0.49142 c -1.010232,1.01024 -0.844691,2.78751 0.339061,3.64021 l 0.525677,0.37867 0.844531,-0.12984 c 0.464494,-0.0714 1.108465,-0.37779 1.431042,-0.68084 z m 11.039311,-2.55404 v -9.30724 l 1.713228,-1.51889 1.713225,-1.51889 h 1.148857 1.148849 v 10.82613 10.82612 h -2.862074 -2.862085 z m 13.439334,6.32755 v -2.97968 l -3.546491,-0.0691 -3.546489,-0.0691 v -2.36433 -2.36432 l 3.554328,-0.0691 3.554324,-0.0691 -0.07005,-2.91742 -0.07006,-2.91742 -3.54649,-0.069 -3.54649,-0.0691 v -2.35749 -2.3575 h 4.798062 4.798062 l 1.548289,1.56218 1.54829,1.56217 v 9.26395 9.26395 h -2.73764 -2.737642 z m 12.692695,-6.45774 v -9.43743 l 1.55547,-1.38758 1.55549,-1.38758 1.18216,-10e-4 1.18217,-10e-4 v 10.82613 10.82612 h -2.73765 -2.73764 z m 24.14102,-1.38868 v -10.82613 h 2.86208 2.86207 v 10.82613 10.82612 h -2.86207 -2.86208 z m 12.87748,8.64845 c -0.73625,-1.19771 -1.72298,-2.81505 -2.19275,-3.59408 l -0.85411,-1.41642 -1.74214,-0.0768 -1.74213,-0.0768 v -2.36433 -2.36433 l 3.67092,-0.0689 3.67093,-0.0689 v -2.35767 -2.35767 h -3.73314 -3.73315 v -2.36433 -2.36433 h 4.92198 4.92199 l 1.67324,1.68616 1.67324,1.68617 v 3.85913 3.85913 l -1.49326,1.47767 c -1.80037,1.78159 -1.79314,1.38939 -0.0743,4.02636 l 1.41898,2.17692 0.10419,1.44036 0.10418,1.44035 h -2.62804 -2.62805 z M 47.5328,30.808183 c -0.523604,-0.18231 -0.975294,-0.33317 -1.003743,-0.33523 -0.02845,-0.002 -0.348456,-0.51007 -0.711126,-1.12892 l -0.659396,-1.12518 0.16108,-0.85864 c 0.0886,-0.47225 0.533825,-1.25386 0.98939,-1.7369 l 0.82831,-0.87826 h 1.28957 c 1.469149,0 2.648944,0.50835 2.881691,1.24165 0.258116,0.81327 0.439374,0.66417 3.776821,-3.1068 l 3.19258,-3.60729 4.115027,-0.001 4.11502,-10e-4 0.40531,-0.68441 c 0.651418,-1.09999 1.557358,-1.81363 2.495596,-1.96589 l 0.873958,-0.14182 0.899947,0.42705 c 3.220036,1.52803 2.15203,6.09824 -1.425084,6.09824 h -1.11321 l -0.733443,-0.61715 c -0.403391,-0.33944 -0.873549,-0.95541 -1.044792,-1.36882 l -0.311349,-0.75167 H 62.61694 58.678922 l -3.156218,3.67093 c -1.735915,2.019 -3.483474,4.24957 -3.883462,4.95681 -1.109786,1.96227 -2.332873,2.53269 -4.106442,1.91516 z m 2.533446,-1.43748 c 0.819864,-0.81986 0.992318,-1.67596 0.521144,-2.58711 l -0.389235,-0.7527 -0.871491,-0.28762 c -2.271776,-0.74975 -3.946041,1.9307 -2.259439,3.61731 l 0.610879,0.61088 h 0.893698 0.893691 z m 21.011071,-7.7274 c 1.675455,-0.86641 1.184169,-3.57107 -0.724821,-3.99035 l -0.73656,-0.16177 -0.732457,0.43267 c -1.37134,0.81007 -1.622498,2.13632 -0.62832,3.31783 l 0.644322,0.76573 h 0.736859 c 0.405282,0 1.05372,-0.16385 1.440977,-0.36411 z m 43.926373,4.76197 c -0.0698,-0.18194 -0.0943,-1.32988 -0.0544,-2.55098 l 0.0725,-2.2202 5.03974,-0.0674 5.03975,-0.0674 v 2.61835 2.61836 h -4.98534 -4.98534 z m -0.10632,-10.74421 v -2.36433 h 5.97304 5.97303 v 2.36433 2.36433 h -5.97303 -5.97304 z"
       id="path842" />
  </g>
</svg>
