<?xml version="1.0" encoding="UTF-8"?>
<!-- FitaDigital UI Mockup: Date Picker -->
<svg xmlns="http://www.w3.org/2000/svg" width="800" height="480">
<rect x="0" y="0" width="800" height="480" fill="#12162a" rx="0"/>
<rect x="0" y="0" width="800" height="480" fill="#0a0d16" rx="0"/>
<rect x="0" y="0" width="800" height="52" fill="#0c1020" rx="0"/>
<line x1="0" y1="52" x2="800" y2="52" stroke="#00b473" stroke-width="2"/>
<text x="400" y="34" font-size="22" font-weight="bold" fill="#eaf0fa" text-anchor="middle" font-family="Segoe UI,Arial,sans-serif">FitaDigital</text>
<path d="M19 28 A14 14 0 0 1 33 28" fill="none" stroke="#00b473" stroke-width="2.5"/>
<path d="M22 32 A8 8 0 0 1 30 32" fill="none" stroke="#00b473" stroke-width="2.5"/>
<circle cx="26" cy="35" r="2" fill="#00b473"/>
<text x="722" y="33" font-size="15" font-weight="normal" fill="#8c9baf" text-anchor="start" font-family="Segoe UI,Arial,sans-serif">14:23</text>
<rect x="0" y="0" width="800" height="480" fill="rgba(0,0,0,0.6)"/>
<rect x="200" y="105" width="400" height="270" fill="#16203a" rx="12" stroke="#00b473" stroke-width="2"/>
<text x="400" y="139" font-size="20" font-weight="bold" fill="#eaf0fa" text-anchor="middle" font-family="Segoe UI,Arial,sans-serif">Ir para Data</text>
<rect x="250" y="161" width="88" height="106" fill="#19202f" rx="5" stroke="#32415a" stroke-width="1"/>
<rect x="252" y="196" width="84" height="35" fill="#232d41" rx="3"/>
<text x="294" y="175" font-size="11" font-weight="normal" fill="#8c9baf" text-anchor="middle" font-family="Segoe UI,Arial,sans-serif">▲</text>
<text x="294" y="227" font-size="18" font-weight="bold" fill="#eaf0fa" text-anchor="middle" font-family="Segoe UI,Arial,sans-serif">22</text>
<text x="294" y="262" font-size="11" font-weight="normal" fill="#8c9baf" text-anchor="middle" font-family="Segoe UI,Arial,sans-serif">▼</text>
<text x="294" y="283" font-size="12" font-weight="normal" fill="#8c9baf" text-anchor="middle" font-family="Segoe UI,Arial,sans-serif">Dia</text>
<rect x="356" y="161" width="88" height="106" fill="#19202f" rx="5" stroke="#32415a" stroke-width="1"/>
<rect x="358" y="196" width="84" height="35" fill="#232d41" rx="3"/>
<text x="400" y="175" font-size="11" font-weight="normal" fill="#8c9baf" text-anchor="middle" font-family="Segoe UI,Arial,sans-serif">▲</text>
<text x="400" y="227" font-size="18" font-weight="bold" fill="#eaf0fa" text-anchor="middle" font-family="Segoe UI,Arial,sans-serif">04</text>
<text x="400" y="262" font-size="11" font-weight="normal" fill="#8c9baf" text-anchor="middle" font-family="Segoe UI,Arial,sans-serif">▼</text>
<text x="400" y="283" font-size="12" font-weight="normal" fill="#8c9baf" text-anchor="middle" font-family="Segoe UI,Arial,sans-serif">Mês</text>
<rect x="462" y="161" width="88" height="106" fill="#19202f" rx="5" stroke="#32415a" stroke-width="1"/>
<rect x="464" y="196" width="84" height="35" fill="#232d41" rx="3"/>
<text x="506" y="175" font-size="11" font-weight="normal" fill="#8c9baf" text-anchor="middle" font-family="Segoe UI,Arial,sans-serif">▲</text>
<text x="506" y="227" font-size="18" font-weight="bold" fill="#eaf0fa" text-anchor="middle" font-family="Segoe UI,Arial,sans-serif">2026</text>
<text x="506" y="262" font-size="11" font-weight="normal" fill="#8c9baf" text-anchor="middle" font-family="Segoe UI,Arial,sans-serif">▼</text>
<text x="506" y="283" font-size="12" font-weight="normal" fill="#8c9baf" text-anchor="middle" font-family="Segoe UI,Arial,sans-serif">Ano</text>
<rect x="220" y="323" width="130" height="38" fill="#232d41" rx="7"/>
<text x="285" y="348" font-size="15" font-weight="normal" fill="#ffffff" text-anchor="middle" font-family="Segoe UI,Arial,sans-serif">Cancelar</text>
<rect x="450" y="323" width="130" height="38" fill="#00a064" rx="7"/>
<text x="515" y="348" font-size="15" font-weight="normal" fill="#ffffff" text-anchor="middle" font-family="Segoe UI,Arial,sans-serif">Confirmar</text>
</svg>
