<?xml version="1.0" encoding="UTF-8"?>
<!-- FitaDigital UI Mockup: RS485 Settings -->
<svg xmlns="http://www.w3.org/2000/svg" width="800" height="480">
<rect x="0" y="0" width="800" height="480" fill="#12162a" rx="0"/>
<rect x="0" y="0" width="800" height="52" fill="#0c1020" rx="0"/>
<line x1="0" y1="52" x2="800" y2="52" stroke="#00b473" stroke-width="2"/>
<text x="400" y="34" font-size="22" font-weight="bold" fill="#eaf0fa" text-anchor="middle" font-family="Segoe UI,Arial,sans-serif">Definições</text>
<path d="M19 28 A14 14 0 0 1 33 28" fill="none" stroke="#00b473" stroke-width="2.5"/>
<path d="M22 32 A8 8 0 0 1 30 32" fill="none" stroke="#00b473" stroke-width="2.5"/>
<circle cx="26" cy="35" r="2" fill="#00b473"/>
<text x="722" y="33" font-size="15" font-weight="normal" fill="#8c9baf" text-anchor="start" font-family="Segoe UI,Arial,sans-serif">14:23</text>
<rect x="0" y="52" width="800" height="40" fill="#0a0d16" rx="0"/>
<text x="80" y="78" font-size="15" font-weight="normal" fill="#8c9baf" text-anchor="middle" font-family="Segoe UI,Arial,sans-serif">WiFi</text>
<rect x="160" y="52" width="160" height="40" fill="#12162a" rx="0"/>
<line x1="160" y1="90" x2="320" y2="90" stroke="#00b473" stroke-width="3"/>
<text x="240" y="78" font-size="15" font-weight="normal" fill="#eaf0fa" text-anchor="middle" font-family="Segoe UI,Arial,sans-serif">RS485</text>
<line x1="160" y1="60" x2="160" y2="84" stroke="#32415a"/>
<text x="400" y="78" font-size="15" font-weight="normal" fill="#8c9baf" text-anchor="middle" font-family="Segoe UI,Arial,sans-serif">Ecrã</text>
<line x1="320" y1="60" x2="320" y2="84" stroke="#32415a"/>
<text x="560" y="78" font-size="15" font-weight="normal" fill="#8c9baf" text-anchor="middle" font-family="Segoe UI,Arial,sans-serif">Hora</text>
<line x1="480" y1="60" x2="480" y2="84" stroke="#32415a"/>
<text x="720" y="78" font-size="15" font-weight="normal" fill="#8c9baf" text-anchor="middle" font-family="Segoe UI,Arial,sans-serif">Scr.</text>
<line x1="640" y1="60" x2="640" y2="84" stroke="#32415a"/>
<text x="40" y="130" font-size="18" font-weight="bold" fill="#eaf0fa" text-anchor="start" font-family="Segoe UI,Arial,sans-serif">Configuração RS485</text>
<text x="40" y="176" font-size="15" font-weight="normal" fill="#8c9baf" text-anchor="start" font-family="Segoe UI,Arial,sans-serif">Baud Rate:</text>
<rect x="190" y="144" width="120" height="96" fill="#19202f" rx="5" stroke="#32415a" stroke-width="1"/>
<rect x="192" y="176" width="116" height="32" fill="#232d41" rx="3"/>
<text x="250" y="158" font-size="11" font-weight="normal" fill="#8c9baf" text-anchor="middle" font-family="Segoe UI,Arial,sans-serif">▲</text>
<text x="250" y="204" font-size="18" font-weight="bold" fill="#eaf0fa" text-anchor="middle" font-family="Segoe UI,Arial,sans-serif">9600</text>
<text x="250" y="235" font-size="11" font-weight="normal" fill="#8c9baf" text-anchor="middle" font-family="Segoe UI,Arial,sans-serif">▼</text>
<text x="250" y="256" font-size="12" font-weight="normal" fill="#8c9baf" text-anchor="middle" font-family="Segoe UI,Arial,sans-serif">bps</text>
<text x="40" y="278" font-size="15" font-weight="normal" fill="#8c9baf" text-anchor="start" font-family="Segoe UI,Arial,sans-serif">Paridade:</text>
<rect x="190" y="248" width="120" height="96" fill="#19202f" rx="5" stroke="#32415a" stroke-width="1"/>
<rect x="192" y="280" width="116" height="32" fill="#232d41" rx="3"/>
<text x="250" y="262" font-size="11" font-weight="normal" fill="#8c9baf" text-anchor="middle" font-family="Segoe UI,Arial,sans-serif">▲</text>
<text x="250" y="308" font-size="18" font-weight="bold" fill="#eaf0fa" text-anchor="middle" font-family="Segoe UI,Arial,sans-serif">N</text>
<text x="250" y="339" font-size="11" font-weight="normal" fill="#8c9baf" text-anchor="middle" font-family="Segoe UI,Arial,sans-serif">▼</text>
<text x="250" y="360" font-size="12" font-weight="normal" fill="#8c9baf" text-anchor="middle" font-family="Segoe UI,Arial,sans-serif">Nenhuma</text>
<text x="380" y="162" font-size="13" font-weight="normal" fill="#8c9baf" text-anchor="start" font-family="Segoe UI,Arial,sans-serif">ℹ Alteração guardada em NVS</text>
<text x="380" y="184" font-size="13" font-weight="normal" fill="#8c9baf" text-anchor="start" font-family="Segoe UI,Arial,sans-serif">Serial1 reinicia automaticamente.</text>
<rect x="40" y="364" width="150" height="40" fill="#00a064" rx="7"/>
<text x="115" y="390" font-size="15" font-weight="normal" fill="#ffffff" text-anchor="middle" font-family="Segoe UI,Arial,sans-serif">Guardar</text>
</svg>
