<?xml version="1.0" encoding="UTF-8"?>
<!-- FitaDigital UI Mockup: QR Share -->
<svg xmlns="http://www.w3.org/2000/svg" width="800" height="480">
<rect x="0" y="0" width="800" height="480" fill="#12162a" rx="0"/>
<rect x="0" y="0" width="800" height="480" fill="#0a0d16" rx="0"/>
<rect x="0" y="0" width="800" height="52" fill="#0c1020" rx="0"/>
<line x1="0" y1="52" x2="800" y2="52" stroke="#00b473" stroke-width="2"/>
<text x="400" y="34" font-size="22" font-weight="bold" fill="#eaf0fa" text-anchor="middle" font-family="Segoe UI,Arial,sans-serif">Partilhar</text>
<path d="M19 28 A14 14 0 0 1 33 28" fill="none" stroke="#00b473" stroke-width="2.5"/>
<path d="M22 32 A8 8 0 0 1 30 32" fill="none" stroke="#00b473" stroke-width="2.5"/>
<circle cx="26" cy="35" r="2" fill="#00b473"/>
<text x="722" y="33" font-size="15" font-weight="normal" fill="#8c9baf" text-anchor="start" font-family="Segoe UI,Arial,sans-serif">14:23</text>
<rect x="30" y="66" width="740" height="398" fill="#12162a" rx="10" stroke="#32415a" stroke-width="1"/>
<text x="50" y="98" font-size="18" font-weight="bold" fill="#eaf0fa" text-anchor="start" font-family="Segoe UI,Arial,sans-serif">Partilhar Ficheiro</text>
<text x="50" y="124" font-size="14" font-weight="normal" fill="#8c9baf" text-anchor="start" font-family="Segoe UI,Arial,sans-serif">ciclo_2026-04-22_140000.txt</text>
<rect x="50" y="140" width="198" height="198" fill="#ffffff" rx="0"/>
<rect x="50" y="140" width="9" height="9" fill="#000000"/>
<rect x="59" y="140" width="9" height="9" fill="#000000"/>
<rect x="68" y="140" width="9" height="9" fill="#000000"/>
<rect x="77" y="140" width="9" height="9" fill="#000000"/>
<rect x="86" y="140" width="9" height="9" fill="#000000"/>
<rect x="95" y="140" width="9" height="9" fill="#000000"/>
<rect x="104" y="140" width="9" height="9" fill="#000000"/>
<rect x="113" y="140" width="9" height="9" fill="#000000"/>
<rect x="149" y="140" width="9" height="9" fill="#000000"/>
<rect x="158" y="140" width="9" height="9" fill="#000000"/>
<rect x="167" y="140" width="9" height="9" fill="#000000"/>
<rect x="185" y="140" width="9" height="9" fill="#000000"/>
<rect x="194" y="140" width="9" height="9" fill="#000000"/>
<rect x="203" y="140" width="9" height="9" fill="#000000"/>
<rect x="212" y="140" width="9" height="9" fill="#000000"/>
<rect x="221" y="140" width="9" height="9" fill="#000000"/>
<rect x="230" y="140" width="9" height="9" fill="#000000"/>
<rect x="239" y="140" width="9" height="9" fill="#000000"/>
<rect x="50" y="149" width="9" height="9" fill="#000000"/>
<rect x="59" y="149" width="9" height="9" fill="#000000"/>
<rect x="68" y="149" width="9" height="9" fill="#000000"/>
<rect x="77" y="149" width="9" height="9" fill="#000000"/>
<rect x="86" y="149" width="9" height="9" fill="#000000"/>
<rect x="95" y="149" width="9" height="9" fill="#000000"/>
<rect x="104" y="149" width="9" height="9" fill="#000000"/>
<rect x="140" y="149" width="9" height="9" fill="#000000"/>
<rect x="167" y="149" width="9" height="9" fill="#000000"/>
<rect x="176" y="149" width="9" height="9" fill="#000000"/>
<rect x="194" y="149" width="9" height="9" fill="#000000"/>
<rect x="203" y="149" width="9" height="9" fill="#000000"/>
<rect x="212" y="149" width="9" height="9" fill="#000000"/>
<rect x="221" y="149" width="9" height="9" fill="#000000"/>
<rect x="230" y="149" width="9" height="9" fill="#000000"/>
<rect x="50" y="158" width="9" height="9" fill="#000000"/>
<rect x="59" y="158" width="9" height="9" fill="#000000"/>
<rect x="68" y="158" width="9" height="9" fill="#000000"/>
<rect x="77" y="158" width="9" height="9" fill="#000000"/>
<rect x="86" y="158" width="9" height="9" fill="#000000"/>
<rect x="95" y="158" width="9" height="9" fill="#000000"/>
<rect x="104" y="158" width="9" height="9" fill="#000000"/>
<rect x="122" y="158" width="9" height="9" fill="#000000"/>
<rect x="131" y="158" width="9" height="9" fill="#000000"/>
<rect x="149" y="158" width="9" height="9" fill="#000000"/>
<rect x="158" y="158" width="9" height="9" fill="#000000"/>
<rect x="194" y="158" width="9" height="9" fill="#000000"/>
<rect x="203" y="158" width="9" height="9" fill="#000000"/>
<rect x="212" y="158" width="9" height="9" fill="#000000"/>
<rect x="221" y="158" width="9" height="9" fill="#000000"/>
<rect x="230" y="158" width="9" height="9" fill="#000000"/>
<rect x="50" y="167" width="9" height="9" fill="#000000"/>
<rect x="59" y="167" width="9" height="9" fill="#000000"/>
<rect x="68" y="167" width="9" height="9" fill="#000000"/>
<rect x="77" y="167" width="9" height="9" fill="#000000"/>
<rect x="86" y="167" width="9" height="9" fill="#000000"/>
<rect x="95" y="167" width="9" height="9" fill="#000000"/>
<rect x="104" y="167" width="9" height="9" fill="#000000"/>
<rect x="113" y="167" width="9" height="9" fill="#000000"/>
<rect x="149" y="167" width="9" height="9" fill="#000000"/>
<rect x="158" y="167" width="9" height="9" fill="#000000"/>
<rect x="167" y="167" width="9" height="9" fill="#000000"/>
<rect x="176" y="167" width="9" height="9" fill="#000000"/>
<rect x="194" y="167" width="9" height="9" fill="#000000"/>
<rect x="203" y="167" width="9" height="9" fill="#000000"/>
<rect x="212" y="167" width="9" height="9" fill="#000000"/>
<rect x="221" y="167" width="9" height="9" fill="#000000"/>
<rect x="230" y="167" width="9" height="9" fill="#000000"/>
<rect x="50" y="176" width="9" height="9" fill="#000000"/>
<rect x="59" y="176" width="9" height="9" fill="#000000"/>
<rect x="68" y="176" width="9" height="9" fill="#000000"/>
<rect x="77" y="176" width="9" height="9" fill="#000000"/>
<rect x="86" y="176" width="9" height="9" fill="#000000"/>
<rect x="95" y="176" width="9" height="9" fill="#000000"/>
<rect x="104" y="176" width="9" height="9" fill="#000000"/>
<rect x="113" y="176" width="9" height="9" fill="#000000"/>
<rect x="122" y="176" width="9" height="9" fill="#000000"/>
<rect x="140" y="176" width="9" height="9" fill="#000000"/>
<rect x="149" y="176" width="9" height="9" fill="#000000"/>
<rect x="158" y="176" width="9" height="9" fill="#000000"/>
<rect x="167" y="176" width="9" height="9" fill="#000000"/>
<rect x="176" y="176" width="9" height="9" fill="#000000"/>
<rect x="194" y="176" width="9" height="9" fill="#000000"/>
<rect x="203" y="176" width="9" height="9" fill="#000000"/>
<rect x="212" y="176" width="9" height="9" fill="#000000"/>
<rect x="221" y="176" width="9" height="9" fill="#000000"/>
<rect x="230" y="176" width="9" height="9" fill="#000000"/>
<rect x="50" y="185" width="9" height="9" fill="#000000"/>
<rect x="59" y="185" width="9" height="9" fill="#000000"/>
<rect x="68" y="185" width="9" height="9" fill="#000000"/>
<rect x="77" y="185" width="9" height="9" fill="#000000"/>
<rect x="86" y="185" width="9" height="9" fill="#000000"/>
<rect x="95" y="185" width="9" height="9" fill="#000000"/>
<rect x="104" y="185" width="9" height="9" fill="#000000"/>
<rect x="113" y="185" width="9" height="9" fill="#000000"/>
<rect x="194" y="185" width="9" height="9" fill="#000000"/>
<rect x="203" y="185" width="9" height="9" fill="#000000"/>
<rect x="212" y="185" width="9" height="9" fill="#000000"/>
<rect x="221" y="185" width="9" height="9" fill="#000000"/>
<rect x="230" y="185" width="9" height="9" fill="#000000"/>
<rect x="50" y="194" width="9" height="9" fill="#000000"/>
<rect x="59" y="194" width="9" height="9" fill="#000000"/>
<rect x="68" y="194" width="9" height="9" fill="#000000"/>
<rect x="77" y="194" width="9" height="9" fill="#000000"/>
<rect x="86" y="194" width="9" height="9" fill="#000000"/>
<rect x="95" y="194" width="9" height="9" fill="#000000"/>
<rect x="104" y="194" width="9" height="9" fill="#000000"/>
<rect x="113" y="194" width="9" height="9" fill="#000000"/>
<rect x="158" y="194" width="9" height="9" fill="#000000"/>
<rect x="167" y="194" width="9" height="9" fill="#000000"/>
<rect x="176" y="194" width="9" height="9" fill="#000000"/>
<rect x="185" y="194" width="9" height="9" fill="#000000"/>
<rect x="194" y="194" width="9" height="9" fill="#000000"/>
<rect x="203" y="194" width="9" height="9" fill="#000000"/>
<rect x="212" y="194" width="9" height="9" fill="#000000"/>
<rect x="221" y="194" width="9" height="9" fill="#000000"/>
<rect x="230" y="194" width="9" height="9" fill="#000000"/>
<rect x="239" y="194" width="9" height="9" fill="#000000"/>
<rect x="59" y="203" width="9" height="9" fill="#000000"/>
<rect x="86" y="203" width="9" height="9" fill="#000000"/>
<rect x="95" y="203" width="9" height="9" fill="#000000"/>
<rect x="104" y="203" width="9" height="9" fill="#000000"/>
<rect x="113" y="203" width="9" height="9" fill="#000000"/>
<rect x="122" y="203" width="9" height="9" fill="#000000"/>
<rect x="131" y="203" width="9" height="9" fill="#000000"/>
<rect x="185" y="203" width="9" height="9" fill="#000000"/>
<rect x="194" y="203" width="9" height="9" fill="#000000"/>
<rect x="212" y="203" width="9" height="9" fill="#000000"/>
<rect x="230" y="203" width="9" height="9" fill="#000000"/>
<rect x="68" y="212" width="9" height="9" fill="#000000"/>
<rect x="86" y="212" width="9" height="9" fill="#000000"/>
<rect x="95" y="212" width="9" height="9" fill="#000000"/>
<rect x="122" y="212" width="9" height="9" fill="#000000"/>
<rect x="131" y="212" width="9" height="9" fill="#000000"/>
<rect x="167" y="212" width="9" height="9" fill="#000000"/>
<rect x="176" y="212" width="9" height="9" fill="#000000"/>
<rect x="212" y="212" width="9" height="9" fill="#000000"/>
<rect x="221" y="212" width="9" height="9" fill="#000000"/>
<rect x="230" y="212" width="9" height="9" fill="#000000"/>
<rect x="239" y="212" width="9" height="9" fill="#000000"/>
<rect x="59" y="221" width="9" height="9" fill="#000000"/>
<rect x="68" y="221" width="9" height="9" fill="#000000"/>
<rect x="77" y="221" width="9" height="9" fill="#000000"/>
<rect x="95" y="221" width="9" height="9" fill="#000000"/>
<rect x="131" y="221" width="9" height="9" fill="#000000"/>
<rect x="140" y="221" width="9" height="9" fill="#000000"/>
<rect x="158" y="221" width="9" height="9" fill="#000000"/>
<rect x="176" y="221" width="9" height="9" fill="#000000"/>
<rect x="185" y="221" width="9" height="9" fill="#000000"/>
<rect x="203" y="221" width="9" height="9" fill="#000000"/>
<rect x="212" y="221" width="9" height="9" fill="#000000"/>
<rect x="230" y="221" width="9" height="9" fill="#000000"/>
<rect x="239" y="221" width="9" height="9" fill="#000000"/>
<rect x="50" y="230" width="9" height="9" fill="#000000"/>
<rect x="59" y="230" width="9" height="9" fill="#000000"/>
<rect x="95" y="230" width="9" height="9" fill="#000000"/>
<rect x="104" y="230" width="9" height="9" fill="#000000"/>
<rect x="113" y="230" width="9" height="9" fill="#000000"/>
<rect x="140" y="230" width="9" height="9" fill="#000000"/>
<rect x="149" y="230" width="9" height="9" fill="#000000"/>
<rect x="185" y="230" width="9" height="9" fill="#000000"/>
<rect x="194" y="230" width="9" height="9" fill="#000000"/>
<rect x="221" y="230" width="9" height="9" fill="#000000"/>
<rect x="239" y="230" width="9" height="9" fill="#000000"/>
<rect x="68" y="239" width="9" height="9" fill="#000000"/>
<rect x="77" y="239" width="9" height="9" fill="#000000"/>
<rect x="104" y="239" width="9" height="9" fill="#000000"/>
<rect x="113" y="239" width="9" height="9" fill="#000000"/>
<rect x="131" y="239" width="9" height="9" fill="#000000"/>
<rect x="167" y="239" width="9" height="9" fill="#000000"/>
<rect x="203" y="239" width="9" height="9" fill="#000000"/>
<rect x="221" y="239" width="9" height="9" fill="#000000"/>
<rect x="230" y="239" width="9" height="9" fill="#000000"/>
<rect x="59" y="248" width="9" height="9" fill="#000000"/>
<rect x="86" y="248" width="9" height="9" fill="#000000"/>
<rect x="95" y="248" width="9" height="9" fill="#000000"/>
<rect x="113" y="248" width="9" height="9" fill="#000000"/>
<rect x="122" y="248" width="9" height="9" fill="#000000"/>
<rect x="176" y="248" width="9" height="9" fill="#000000"/>
<rect x="185" y="248" width="9" height="9" fill="#000000"/>
<rect x="194" y="248" width="9" height="9" fill="#000000"/>
<rect x="230" y="248" width="9" height="9" fill="#000000"/>
<rect x="95" y="257" width="9" height="9" fill="#000000"/>
<rect x="113" y="257" width="9" height="9" fill="#000000"/>
<rect x="122" y="257" width="9" height="9" fill="#000000"/>
<rect x="140" y="257" width="9" height="9" fill="#000000"/>
<rect x="149" y="257" width="9" height="9" fill="#000000"/>
<rect x="158" y="257" width="9" height="9" fill="#000000"/>
<rect x="167" y="257" width="9" height="9" fill="#000000"/>
<rect x="176" y="257" width="9" height="9" fill="#000000"/>
<rect x="239" y="257" width="9" height="9" fill="#000000"/>
<rect x="59" y="266" width="9" height="9" fill="#000000"/>
<rect x="86" y="266" width="9" height="9" fill="#000000"/>
<rect x="95" y="266" width="9" height="9" fill="#000000"/>
<rect x="104" y="266" width="9" height="9" fill="#000000"/>
<rect x="113" y="266" width="9" height="9" fill="#000000"/>
<rect x="140" y="266" width="9" height="9" fill="#000000"/>
<rect x="149" y="266" width="9" height="9" fill="#000000"/>
<rect x="158" y="266" width="9" height="9" fill="#000000"/>
<rect x="167" y="266" width="9" height="9" fill="#000000"/>
<rect x="185" y="266" width="9" height="9" fill="#000000"/>
<rect x="194" y="266" width="9" height="9" fill="#000000"/>
<rect x="203" y="266" width="9" height="9" fill="#000000"/>
<rect x="221" y="266" width="9" height="9" fill="#000000"/>
<rect x="50" y="275" width="9" height="9" fill="#000000"/>
<rect x="104" y="275" width="9" height="9" fill="#000000"/>
<rect x="113" y="275" width="9" height="9" fill="#000000"/>
<rect x="122" y="275" width="9" height="9" fill="#000000"/>
<rect x="149" y="275" width="9" height="9" fill="#000000"/>
<rect x="167" y="275" width="9" height="9" fill="#000000"/>
<rect x="176" y="275" width="9" height="9" fill="#000000"/>
<rect x="194" y="275" width="9" height="9" fill="#000000"/>
<rect x="203" y="275" width="9" height="9" fill="#000000"/>
<rect x="212" y="275" width="9" height="9" fill="#000000"/>
<rect x="230" y="275" width="9" height="9" fill="#000000"/>
<rect x="50" y="284" width="9" height="9" fill="#000000"/>
<rect x="59" y="284" width="9" height="9" fill="#000000"/>
<rect x="68" y="284" width="9" height="9" fill="#000000"/>
<rect x="77" y="284" width="9" height="9" fill="#000000"/>
<rect x="86" y="284" width="9" height="9" fill="#000000"/>
<rect x="95" y="284" width="9" height="9" fill="#000000"/>
<rect x="104" y="284" width="9" height="9" fill="#000000"/>
<rect x="122" y="284" width="9" height="9" fill="#000000"/>
<rect x="149" y="284" width="9" height="9" fill="#000000"/>
<rect x="176" y="284" width="9" height="9" fill="#000000"/>
<rect x="185" y="284" width="9" height="9" fill="#000000"/>
<rect x="221" y="284" width="9" height="9" fill="#000000"/>
<rect x="230" y="284" width="9" height="9" fill="#000000"/>
<rect x="239" y="284" width="9" height="9" fill="#000000"/>
<rect x="50" y="293" width="9" height="9" fill="#000000"/>
<rect x="59" y="293" width="9" height="9" fill="#000000"/>
<rect x="68" y="293" width="9" height="9" fill="#000000"/>
<rect x="77" y="293" width="9" height="9" fill="#000000"/>
<rect x="86" y="293" width="9" height="9" fill="#000000"/>
<rect x="95" y="293" width="9" height="9" fill="#000000"/>
<rect x="104" y="293" width="9" height="9" fill="#000000"/>
<rect x="131" y="293" width="9" height="9" fill="#000000"/>
<rect x="140" y="293" width="9" height="9" fill="#000000"/>
<rect x="149" y="293" width="9" height="9" fill="#000000"/>
<rect x="158" y="293" width="9" height="9" fill="#000000"/>
<rect x="167" y="293" width="9" height="9" fill="#000000"/>
<rect x="185" y="293" width="9" height="9" fill="#000000"/>
<rect x="203" y="293" width="9" height="9" fill="#000000"/>
<rect x="212" y="293" width="9" height="9" fill="#000000"/>
<rect x="50" y="302" width="9" height="9" fill="#000000"/>
<rect x="59" y="302" width="9" height="9" fill="#000000"/>
<rect x="68" y="302" width="9" height="9" fill="#000000"/>
<rect x="77" y="302" width="9" height="9" fill="#000000"/>
<rect x="86" y="302" width="9" height="9" fill="#000000"/>
<rect x="95" y="302" width="9" height="9" fill="#000000"/>
<rect x="104" y="302" width="9" height="9" fill="#000000"/>
<rect x="113" y="302" width="9" height="9" fill="#000000"/>
<rect x="131" y="302" width="9" height="9" fill="#000000"/>
<rect x="140" y="302" width="9" height="9" fill="#000000"/>
<rect x="158" y="302" width="9" height="9" fill="#000000"/>
<rect x="185" y="302" width="9" height="9" fill="#000000"/>
<rect x="194" y="302" width="9" height="9" fill="#000000"/>
<rect x="239" y="302" width="9" height="9" fill="#000000"/>
<rect x="50" y="311" width="9" height="9" fill="#000000"/>
<rect x="59" y="311" width="9" height="9" fill="#000000"/>
<rect x="68" y="311" width="9" height="9" fill="#000000"/>
<rect x="77" y="311" width="9" height="9" fill="#000000"/>
<rect x="86" y="311" width="9" height="9" fill="#000000"/>
<rect x="95" y="311" width="9" height="9" fill="#000000"/>
<rect x="104" y="311" width="9" height="9" fill="#000000"/>
<rect x="113" y="311" width="9" height="9" fill="#000000"/>
<rect x="131" y="311" width="9" height="9" fill="#000000"/>
<rect x="140" y="311" width="9" height="9" fill="#000000"/>
<rect x="176" y="311" width="9" height="9" fill="#000000"/>
<rect x="185" y="311" width="9" height="9" fill="#000000"/>
<rect x="194" y="311" width="9" height="9" fill="#000000"/>
<rect x="203" y="311" width="9" height="9" fill="#000000"/>
<rect x="212" y="311" width="9" height="9" fill="#000000"/>
<rect x="50" y="320" width="9" height="9" fill="#000000"/>
<rect x="59" y="320" width="9" height="9" fill="#000000"/>
<rect x="68" y="320" width="9" height="9" fill="#000000"/>
<rect x="77" y="320" width="9" height="9" fill="#000000"/>
<rect x="86" y="320" width="9" height="9" fill="#000000"/>
<rect x="95" y="320" width="9" height="9" fill="#000000"/>
<rect x="104" y="320" width="9" height="9" fill="#000000"/>
<rect x="113" y="320" width="9" height="9" fill="#000000"/>
<rect x="122" y="320" width="9" height="9" fill="#000000"/>
<rect x="131" y="320" width="9" height="9" fill="#000000"/>
<rect x="140" y="320" width="9" height="9" fill="#000000"/>
<rect x="176" y="320" width="9" height="9" fill="#000000"/>
<rect x="185" y="320" width="9" height="9" fill="#000000"/>
<rect x="203" y="320" width="9" height="9" fill="#000000"/>
<rect x="221" y="320" width="9" height="9" fill="#000000"/>
<rect x="230" y="320" width="9" height="9" fill="#000000"/>
<rect x="239" y="320" width="9" height="9" fill="#000000"/>
<rect x="50" y="329" width="9" height="9" fill="#000000"/>
<rect x="104" y="329" width="9" height="9" fill="#000000"/>
<rect x="113" y="329" width="9" height="9" fill="#000000"/>
<rect x="122" y="329" width="9" height="9" fill="#000000"/>
<rect x="140" y="329" width="9" height="9" fill="#000000"/>
<rect x="158" y="329" width="9" height="9" fill="#000000"/>
<rect x="167" y="329" width="9" height="9" fill="#000000"/>
<rect x="176" y="329" width="9" height="9" fill="#000000"/>
<rect x="185" y="329" width="9" height="9" fill="#000000"/>
<rect x="203" y="329" width="9" height="9" fill="#000000"/>
<rect x="221" y="329" width="9" height="9" fill="#000000"/>
<rect x="230" y="329" width="9" height="9" fill="#000000"/>
<text x="50" y="362" font-size="12" font-weight="normal" fill="#8c9baf" text-anchor="start" font-family="Segoe UI,Arial,sans-serif">http://192.168.4.1/download/ciclo_2026-04-22.txt</text>
<text x="50" y="382" font-size="13" font-weight="normal" fill="#00b473" text-anchor="start" font-family="Segoe UI,Arial,sans-serif">Digitalize para descarregar</text>
<text x="278" y="158" font-size="15" font-weight="bold" fill="#eaf0fa" text-anchor="start" font-family="Segoe UI,Arial,sans-serif">Como descarregar:</text>
<text x="278" y="184" font-size="14" font-weight="normal" fill="#eaf0fa" text-anchor="start" font-family="Segoe UI,Arial,sans-serif">1. Abrir câmara do telemóvel</text>
<text x="278" y="212" font-size="14" font-weight="normal" fill="#eaf0fa" text-anchor="start" font-family="Segoe UI,Arial,sans-serif">2. Apontar para o código QR</text>
<text x="278" y="240" font-size="14" font-weight="normal" fill="#eaf0fa" text-anchor="start" font-family="Segoe UI,Arial,sans-serif">3. Tocar no link</text>
<text x="278" y="268" font-size="14" font-weight="normal" fill="#eaf0fa" text-anchor="start" font-family="Segoe UI,Arial,sans-serif">4. Ficheiro descarregado ✓</text>
<rect x="642" y="414" width="108" height="36" fill="#232d41" rx="7"/>
<text x="696" y="438" font-size="15" font-weight="normal" fill="#ffffff" text-anchor="middle" font-family="Segoe UI,Arial,sans-serif">Fechar</text>
</svg>
